<svg viewBox="0 0 24 24" width="24" height="24" fill="white" class="text-cyan-300 group-hover:scale-110 transition-transform" xmlns="http://www.w3.org/2000/svg"><path d="M17.472 14.382c-.297-.149-1.758-.867-2.03-.967-.273-.099-.471.048-.67.35-.197.297-.767.966-.94 1.164-.173.199-.347.223-.644.075-.297-.15-1.255-.463-2.39-1.475-.883-.788-1.48-1.761-1.653-2.059-.173-.297-.018-.458.13-.606.134-.133.298-.347.446-.52.149-.174.198-.298.298-.497.099-.198.05-.371-.025-.52-.075-.149-.669-1.612-.916-2.207-.242-.579-.487-.5-.669-.51-.173-.008-.371-.008-.57-.008-.198 0-.52.074-.792.372-.272.297-1.04 1.016-1.04 2.479 0 1.462 1.065 2.875 1.213 3.074.149.198 2.096 3.2 5.077 4.487.709.306 1.262.489 1.694.625.712.227 1.36.195 1.871.118.571-.085 1.767-.721 2.016-1.417.248-.694.248-1.289.173-1.417-.074-.125-.272-.2-.572-.35L17.505 14.39Z"></path><path d="M12.018 2.09c-5.528 0-10.02 4.492-10.02 10.02 0 1.77.46 3.497 1.341 5.013L2 22l4.988-1.308a9.982 9.982 0 0 0 4.965 1.383h.065c5.528 0 10.018-4.492 10.018-10.02a9.96 9.96 0 0 0-2.936-7.078 9.97 9.97 0 0 0-7.082-2.888zM12.064 20.08h-.057c-1.505 0-2.98-.405-4.269-1.169l-.306-.182-3.167.83 1.127-3.085-.198-.316a8.038 8.038 0 0 1-1.233-4.271c0-4.432 3.606-8.038 8.038-8.038 2.15 0 4.167.838 5.684 2.357 1.516 1.519 2.352 3.536 2.351 5.687.001 4.432-3.605 8.037-8.037 8.037h.067z"></path></svg>